<svg viewBox="0 0 400 220" xmlns="http://www.w3.org/2000/svg">
  <rect width="400" height="220" fill="#eef7f6"/>
  <g font-family="Arial, sans-serif">
    <!-- Stage boxes -->
    <g>
      <rect x="16" y="86" width="66" height="48" rx="8" fill="#ffffff" stroke="#0b3833" stroke-opacity="0.15"/>
      <text x="49" y="106" text-anchor="middle" font-size="9" font-weight="700" fill="#0b3833">Raw</text>
      <text x="49" y="118" text-anchor="middle" font-size="9" font-weight="700" fill="#0b3833">sewage</text>
    </g>
    <g>
      <rect x="98" y="86" width="66" height="48" rx="8" fill="#ffffff" stroke="#0b3833" stroke-opacity="0.15"/>
      <text x="131" y="106" text-anchor="middle" font-size="9" font-weight="700" fill="#0b3833">Preliminary</text>
      <text x="131" y="118" text-anchor="middle" font-size="8" fill="#54706c">Screening</text>
    </g>
    <g>
      <rect x="180" y="86" width="66" height="48" rx="8" fill="#ffffff" stroke="#0b3833" stroke-opacity="0.15"/>
      <text x="213" y="106" text-anchor="middle" font-size="9" font-weight="700" fill="#0b3833">Primary</text>
      <text x="213" y="118" text-anchor="middle" font-size="8" fill="#54706c">Settling</text>
    </g>
    <g>
      <rect x="262" y="80" width="72" height="60" rx="8" fill="#2eb39e"/>
      <text x="298" y="102" text-anchor="middle" font-size="9" font-weight="700" fill="#04342c">Secondary</text>
      <text x="298" y="114" text-anchor="middle" font-size="8" fill="#04342c">Biological</text>
      <text x="298" y="126" text-anchor="middle" font-size="8" fill="#04342c">treatment</text>
    </g>
    <g>
      <rect x="346" y="86" width="66" height="48" rx="8" fill="#ffffff" stroke="#0b3833" stroke-opacity="0.15" transform="translate(-14,0)"/>
      <text x="365" y="106" text-anchor="middle" font-size="9" font-weight="700" fill="#0b3833">Treated</text>
      <text x="365" y="118" text-anchor="middle" font-size="8" fill="#54706c">water</text>
    </g>
    <!-- Arrows -->
    <line x1="82" y1="110" x2="96" y2="110" stroke="#0b3833" stroke-width="1.4" marker-end="url(#arrow)"/>
    <line x1="164" y1="110" x2="178" y2="110" stroke="#0b3833" stroke-width="1.4" marker-end="url(#arrow)"/>
    <line x1="246" y1="110" x2="260" y2="110" stroke="#0b3833" stroke-width="1.4" marker-end="url(#arrow)"/>
    <line x1="334" y1="110" x2="346" y2="110" stroke="#0b3833" stroke-width="1.4" marker-end="url(#arrow)"/>
    <defs>
      <marker id="arrow" viewBox="0 0 10 10" refX="8" refY="5" markerWidth="6" markerHeight="6" orient="auto">
        <path d="M0 0L10 5L0 10Z" fill="#0b3833"/>
      </marker>
    </defs>
  </g>
</svg>
